<svg xmlns="http://www.w3.org/2000/svg" version="1.1" xmlns:xlink="http://www.w3.org/1999/xlink" xmlns:svgjs="http://svgjs.com/svgjs" width="1440" height="560" preserveAspectRatio="none" viewBox="0 0 1440 560"><g mask="url(&quot;#SvgjsMask1059&quot;)" fill="none"><rect width="1440" height="560" x="0" y="0" fill="#0e2a47"></rect><path d="M0,525.794C110.935,521.001,236.646,573.148,325.827,506.996C415.116,440.764,389.004,299.793,438.726,200.36C491.124,95.575,606.23,26.013,624.234,-89.751C644.592,-220.652,625.015,-366.483,543.074,-470.576C460.162,-575.902,321.837,-626.679,188.78,-642.926C66.308,-657.881,-48.968,-602.722,-163.507,-556.854C-267.937,-515.034,-382.575,-479.671,-447.784,-388.007C-511.025,-299.111,-489.708,-180.598,-507.719,-72.999C-526.253,37.724,-584.246,145.105,-555.171,253.538C-524.122,369.334,-452.077,483.169,-344.437,535.955C-239.176,587.575,-117.128,530.854,0,525.794" fill="#091b2e"></path><path d="M1440 1189.183C1555.555 1196.3310000000001 1619.466 1052.863 1721.0529999999999 997.327 1833.75 935.717 2016.317 964.358 2067.07 846.373 2118.173 727.576 1965.665 614.867 1940.109 488.095 1916.684 371.895 1988.9299999999998 239.639 1924.676 140.026 1859.541 39.048 1726.851 9.514999999999986 1610.949-22.200000000000045 1496.788-53.43799999999999 1376.442-76.48199999999997 1263.567-40.875 1151.734-5.596000000000004 1077.623 91.483 993.0550000000001 172.72000000000003 899.573 262.52 774.614 334.135 742.458 459.709 709.475 588.516 734.366 742.053 821.564 842.4300000000001 906.098 939.741 1068.005 900.844 1180.439 963.885 1282.436 1021.0740000000001 1323.287 1181.963 1440 1189.183" fill="#133960"></path></g><defs><mask id="SvgjsMask1059"><rect width="1440" height="560" fill="#ffffff"></rect></mask></defs></svg>